<svg width="176" height="241" viewBox="0 0 176 241" fill="none" xmlns="http://www.w3.org/2000/svg">
<path d="M6.84091 213.045V233.408H1.3125V213.045H6.84091ZM16.9891 213.045V233.408H11.5005V213.045H16.9891ZM27.2343 213.045V233.408H21.7456V213.045H27.2343ZM41.8942 226.726V218.135H47.3828V233.408H42.1726V230.505H42.0135C41.6821 231.479 41.1021 232.242 40.2735 232.792C39.4449 233.335 38.4605 233.607 37.3203 233.607C36.2531 233.607 35.3184 233.362 34.5164 232.871C33.7209 232.381 33.1011 231.705 32.657 230.843C32.2195 229.981 31.9974 228.993 31.9908 227.88V218.135H37.4794V226.726C37.4861 227.482 37.6783 228.075 38.0561 228.506C38.4406 228.937 38.9775 229.153 39.6669 229.153C40.1243 229.153 40.5187 229.056 40.8502 228.864C41.1882 228.665 41.4468 228.387 41.6257 228.029C41.8113 227.664 41.9008 227.23 41.8942 226.726ZM66.0946 223.107H61.0435C61.017 222.796 60.9076 222.527 60.7154 222.302C60.5231 222.076 60.2745 221.904 59.9696 221.785C59.6713 221.659 59.3399 221.596 58.9753 221.596C58.5047 221.596 58.1003 221.682 57.7622 221.854C57.4242 222.027 57.2584 222.272 57.2651 222.59C57.2584 222.815 57.3546 223.024 57.5534 223.216C57.7589 223.409 58.1533 223.558 58.7367 223.664L61.8389 224.221C63.4033 224.506 64.5667 224.986 65.329 225.662C66.0979 226.332 66.4857 227.23 66.4923 228.357C66.4857 229.444 66.1609 230.389 65.5179 231.191C64.8815 231.986 64.0099 232.603 62.9029 233.04C61.8025 233.471 60.5463 233.687 59.1344 233.687C56.8011 233.687 54.9748 233.209 53.6557 232.255C52.3432 231.3 51.6107 230.041 51.4583 228.476H56.9071C56.98 228.96 57.2187 229.335 57.623 229.6C58.034 229.858 58.5511 229.988 59.1742 229.988C59.678 229.988 60.0922 229.902 60.4171 229.729C60.7485 229.557 60.9175 229.312 60.9242 228.993C60.9175 228.702 60.7717 228.47 60.4867 228.297C60.2083 228.125 59.7708 227.986 59.1742 227.88L56.4696 227.403C54.9119 227.131 53.7452 226.614 52.9696 225.851C52.194 225.089 51.8096 224.108 51.8162 222.908C51.8096 221.848 52.088 220.949 52.6514 220.214C53.2215 219.471 54.0335 218.908 55.0875 218.523C56.1481 218.132 57.4043 217.937 58.856 217.937C61.0634 217.937 62.8034 218.394 64.0762 219.309C65.3555 220.224 66.0283 221.49 66.0946 223.107ZM79.6633 218.135V222.113H69.6008V218.135H79.6633ZM71.5496 214.476H77.0383V228.496C77.0383 228.708 77.0747 228.887 77.1477 229.033C77.2206 229.172 77.3333 229.278 77.4857 229.351C77.6382 229.418 77.8337 229.451 78.0724 229.451C78.2381 229.451 78.4303 229.431 78.6491 229.391C78.8745 229.351 79.0402 229.318 79.1462 229.292L79.9417 233.15C79.6964 233.223 79.3451 233.312 78.8877 233.418C78.437 233.524 77.9 233.594 77.2769 233.627C76.0175 233.693 74.9602 233.564 74.105 233.239C73.2499 232.908 72.6069 232.387 72.1761 231.678C71.7452 230.969 71.5364 230.081 71.5496 229.013V214.476ZM83.863 233.408V218.135H89.1925V221.039H89.3516C89.63 219.965 90.0708 219.18 90.6741 218.682C91.2839 218.185 91.9965 217.937 92.8118 217.937C93.0505 217.937 93.2858 217.956 93.5178 217.996C93.7565 218.029 93.9851 218.079 94.2039 218.145V222.829C93.9321 222.736 93.5974 222.666 93.1996 222.62C92.8019 222.573 92.4605 222.55 92.1755 222.55C91.6386 222.55 91.1547 222.673 90.7238 222.918C90.2995 223.157 89.9648 223.495 89.7195 223.932C89.4743 224.363 89.3516 224.87 89.3516 225.454V233.408H83.863ZM101.508 233.647C100.534 233.647 99.6722 233.488 98.9231 233.17C98.1807 232.845 97.5974 232.354 97.1731 231.698C96.7489 231.042 96.5368 230.206 96.5368 229.192C96.5368 228.357 96.6793 227.644 96.9643 227.055C97.2494 226.458 97.6471 225.971 98.1575 225.593C98.6679 225.215 99.2612 224.927 99.9373 224.728C100.62 224.529 101.356 224.4 102.145 224.34C103 224.274 103.686 224.194 104.203 224.101C104.727 224.002 105.104 223.866 105.336 223.694C105.568 223.515 105.684 223.279 105.684 222.988V222.948C105.684 222.55 105.532 222.245 105.227 222.033C104.922 221.821 104.531 221.715 104.054 221.715C103.53 221.715 103.103 221.831 102.771 222.063C102.446 222.288 102.251 222.636 102.184 223.107H97.1334C97.1996 222.179 97.4946 221.324 98.0183 220.542C98.5486 219.753 99.3209 219.123 100.335 218.653C101.349 218.175 102.615 217.937 104.133 217.937C105.227 217.937 106.208 218.066 107.077 218.324C107.945 218.576 108.684 218.931 109.294 219.388C109.904 219.839 110.368 220.369 110.686 220.979C111.011 221.582 111.173 222.239 111.173 222.948V233.408H106.042V231.26H105.923C105.618 231.831 105.247 232.291 104.809 232.643C104.379 232.994 103.885 233.249 103.328 233.408C102.778 233.567 102.171 233.647 101.508 233.647ZM103.298 230.187C103.716 230.187 104.107 230.1 104.471 229.928C104.843 229.756 105.144 229.507 105.376 229.182C105.608 228.858 105.724 228.463 105.724 227.999V226.726C105.578 226.786 105.423 226.842 105.257 226.895C105.098 226.948 104.925 226.998 104.74 227.045C104.561 227.091 104.369 227.134 104.163 227.174C103.964 227.214 103.756 227.25 103.537 227.283C103.113 227.349 102.765 227.459 102.493 227.611C102.228 227.757 102.029 227.939 101.896 228.158C101.77 228.37 101.707 228.609 101.707 228.874C101.707 229.298 101.856 229.623 102.155 229.849C102.453 230.074 102.834 230.187 103.298 230.187ZM124.864 218.135V222.113H114.801V218.135H124.864ZM116.75 214.476H122.239V228.496C122.239 228.708 122.275 228.887 122.348 229.033C122.421 229.172 122.534 229.278 122.686 229.351C122.838 229.418 123.034 229.451 123.273 229.451C123.438 229.451 123.631 229.431 123.849 229.391C124.075 229.351 124.24 229.318 124.347 229.292L125.142 233.15C124.897 233.223 124.545 233.312 124.088 233.418C123.637 233.524 123.1 233.594 122.477 233.627C121.218 233.693 120.16 233.564 119.305 233.239C118.45 232.908 117.807 232.387 117.376 231.678C116.946 230.969 116.737 230.081 116.75 229.013V214.476ZM129.063 233.408V218.135H134.552V233.408H129.063ZM131.808 216.545C131.065 216.545 130.429 216.299 129.899 215.809C129.368 215.318 129.103 214.728 129.103 214.039C129.103 213.349 129.368 212.76 129.899 212.269C130.429 211.778 131.065 211.533 131.808 211.533C132.557 211.533 133.193 211.778 133.717 212.269C134.247 212.76 134.512 213.349 134.512 214.039C134.512 214.728 134.247 215.318 133.717 215.809C133.193 216.299 132.557 216.545 131.808 216.545ZM146.666 233.687C145.009 233.687 143.591 233.358 142.411 232.702C141.231 232.039 140.326 231.118 139.696 229.938C139.067 228.751 138.752 227.376 138.752 225.812C138.752 224.247 139.067 222.875 139.696 221.695C140.326 220.509 141.231 219.587 142.411 218.931C143.591 218.268 145.009 217.937 146.666 217.937C148.324 217.937 149.742 218.268 150.922 218.931C152.102 219.587 153.007 220.509 153.637 221.695C154.266 222.875 154.581 224.247 154.581 225.812C154.581 227.376 154.266 228.751 153.637 229.938C153.007 231.118 152.102 232.039 150.922 232.702C149.742 233.358 148.324 233.687 146.666 233.687ZM146.706 229.63C147.17 229.63 147.571 229.474 147.909 229.162C148.247 228.851 148.509 228.407 148.695 227.83C148.88 227.253 148.973 226.567 148.973 225.772C148.973 224.97 148.88 224.284 148.695 223.714C148.509 223.137 148.247 222.693 147.909 222.381C147.571 222.07 147.17 221.914 146.706 221.914C146.216 221.914 145.795 222.07 145.443 222.381C145.092 222.693 144.824 223.137 144.638 223.714C144.452 224.284 144.36 224.97 144.36 225.772C144.36 226.567 144.452 227.253 144.638 227.83C144.824 228.407 145.092 228.851 145.443 229.162C145.795 229.474 146.216 229.63 146.706 229.63ZM164.257 224.817V233.408H158.768V218.135H163.979V221.039H164.138C164.469 220.071 165.053 219.312 165.888 218.762C166.73 218.212 167.711 217.937 168.831 217.937C169.911 217.937 170.849 218.185 171.645 218.682C172.447 219.173 173.067 219.849 173.504 220.711C173.948 221.573 174.167 222.557 174.16 223.664V233.408H168.672V224.817C168.678 224.062 168.486 223.468 168.095 223.037C167.711 222.607 167.174 222.391 166.484 222.391C166.034 222.391 165.639 222.491 165.301 222.689C164.97 222.882 164.714 223.16 164.535 223.525C164.357 223.883 164.264 224.314 164.257 224.817Z" fill="black"/>
<path d="M83.1529 33.19C83.1529 34.2573 83.1529 35.3641 83.1529 36.4313V39.0797V53.468V59.3577V66.6308C83.1529 74.0226 83.1529 81.4144 83.1529 88.7666C83.1529 89.0828 83.1529 89.2014 83.1529 89.2409C83.1529 89.2409 83.0344 89.32 82.9159 89.3991C78.6888 91.6522 76.595 96.5141 77.8197 101.218C79.0443 105.803 83.1924 109.045 87.9726 109.084C92.7528 109.084 96.9404 105.803 98.1651 101.139C99.3898 96.5141 97.2565 91.6522 93.0294 89.3595C92.9504 89.32 92.8713 89.2805 92.8318 89.2409C92.8318 89.2014 92.8318 89.1224 92.8318 89.0038C92.8318 70.386 92.8318 51.8078 92.8318 33.19C103.972 55.4839 115.074 77.7778 126.254 100.072C126.372 100.348 126.412 100.467 126.412 100.467C126.412 100.467 126.412 100.546 126.293 100.783C122.066 109.124 117.918 117.464 113.77 125.884C105.316 125.884 96.8614 125.884 88.4072 125.884C79.953 125.884 70.9852 125.884 62.2149 125.884C57.7112 116.792 53.6421 108.61 49.6915 100.823C49.494 100.467 49.494 100.427 49.6915 99.9926C59.331 80.7029 68.9704 61.4526 78.6098 42.1629L83.0739 33.19M83.9826 26.7074C83.3505 26.7074 82.7579 27.1817 82.4023 27.8932C82.2838 28.1304 82.1653 28.3676 82.0468 28.6047C70.3926 51.9659 58.7384 75.2875 47.0447 98.6486C46.4126 99.874 46.3731 100.902 47.0447 102.127C51.3113 110.547 55.5384 119.006 59.726 127.504C60.2001 128.453 60.7137 128.809 61.8198 128.809C70.6691 128.809 79.5579 128.809 88.4072 128.809C97.2565 128.809 105.632 128.809 114.204 128.809C115.192 128.809 115.745 128.492 116.18 127.583C120.407 119.045 124.634 110.547 128.94 102.048C129.533 100.862 129.493 99.874 128.94 98.6882C117.207 75.2875 105.553 51.8868 93.859 28.4862C93.3849 27.5375 92.9109 26.7074 91.8442 26.7074C91.6862 26.7074 91.4886 26.7074 91.2911 26.7865C89.9479 27.1027 89.8689 28.2095 89.9084 29.3558C89.9084 49.2384 89.9084 69.0816 89.9084 88.9642C89.9084 90.3873 90.3825 91.2173 91.6467 91.8893C94.7281 93.5495 96.1898 97.028 95.3207 100.309C94.4516 103.708 91.4492 106.04 88.0121 106.04C88.0121 106.04 88.0121 106.04 87.9726 106.04C84.5751 106.04 81.6122 103.708 80.7036 100.388C79.8344 97.107 81.2171 93.589 84.2986 91.9684C85.7208 91.2173 86.1159 90.2291 86.1159 88.7271C86.0764 78.9241 86.1159 69.1211 86.1159 59.3181C86.1159 52.5588 86.1159 45.7995 86.1159 39.0402C86.1159 35.6408 86.1949 32.2018 86.0369 28.8024C86.0369 28.1304 85.3653 27.1817 84.7332 26.8655C84.4961 26.7469 84.2591 26.7074 84.0616 26.7074H83.9826Z" fill="black"/>
<path d="M83.1529 33.19C83.1529 34.2573 83.1529 35.3641 83.1529 36.4313V39.0797V53.468V59.3577V66.6308C83.1529 74.0226 83.1529 81.4144 83.1529 88.7666C83.1529 89.0828 83.1529 89.2014 83.1529 89.2409C83.1529 89.2409 83.0344 89.32 82.9159 89.3991C78.6888 91.6522 76.595 96.5141 77.8197 101.218C79.0443 105.803 83.1924 109.045 87.9726 109.084C92.7528 109.084 96.9404 105.803 98.1651 101.139C99.3898 96.5141 97.2565 91.6522 93.0294 89.3595C92.9504 89.32 92.8713 89.2805 92.8318 89.2409C92.8318 89.2014 92.8318 89.1224 92.8318 89.0038C92.8318 70.386 92.8318 51.8078 92.8318 33.19C103.972 55.4839 115.074 77.7778 126.254 100.072C126.372 100.348 126.412 100.467 126.412 100.467C126.412 100.467 126.412 100.546 126.293 100.783C122.066 109.124 117.918 117.464 113.77 125.884C105.316 125.884 96.8614 125.884 88.4072 125.884C79.953 125.884 70.9852 125.884 62.2149 125.884C57.7112 116.792 53.6421 108.61 49.6915 100.823C49.494 100.467 49.494 100.427 49.6915 99.9926C59.331 80.7029 68.9704 61.4526 78.6098 42.1629L83.0739 33.19M83.9826 26.7074C83.3505 26.7074 82.7579 27.1817 82.4023 27.8932C82.2838 28.1304 82.1653 28.3676 82.0468 28.6047C70.3926 51.9659 58.7384 75.2875 47.0447 98.6486C46.4126 99.874 46.3731 100.902 47.0447 102.127C51.3113 110.547 55.5384 119.006 59.726 127.504C60.2001 128.453 60.7137 128.809 61.8198 128.809C70.6691 128.809 79.5579 128.809 88.4072 128.809C97.2565 128.809 105.632 128.809 114.204 128.809C115.192 128.809 115.745 128.492 116.18 127.583C120.407 119.045 124.634 110.547 128.94 102.048C129.533 100.862 129.493 99.874 128.94 98.6882C117.207 75.2875 105.553 51.8868 93.859 28.4862C93.3849 27.5375 92.9109 26.7074 91.8442 26.7074C91.6862 26.7074 91.4886 26.7074 91.2911 26.7865C89.9479 27.1027 89.8689 28.2095 89.9084 29.3558C89.9084 49.2384 89.9084 69.0816 89.9084 88.9642C89.9084 90.3873 90.3825 91.2173 91.6467 91.8893C94.7281 93.5495 96.1898 97.028 95.3207 100.309C94.4516 103.708 91.4491 106.04 88.0121 106.04C88.0121 106.04 88.0121 106.04 87.9726 106.04C84.5751 106.04 81.6122 103.708 80.7036 100.388C79.8344 97.107 81.2171 93.589 84.2986 91.9684C85.7208 91.2173 86.1159 90.2291 86.1159 88.7271C86.0764 78.9241 86.1159 69.1211 86.1159 59.3181C86.1159 52.5588 86.1159 45.7995 86.1159 39.0402C86.1159 35.6408 86.1949 32.2018 86.0369 28.8024C86.0369 28.1304 85.3653 27.1817 84.7332 26.8655C84.4961 26.7469 84.2591 26.7074 84.0616 26.7074H83.9826Z" stroke="black" stroke-width="1.3"/>
<path d="M34.8763 9.62311C33.6121 12.9435 31.3208 15.0385 27.5283 15.078C23.8147 15.078 20.6938 12.4296 20.1012 8.87208C19.5086 5.07737 21.5629 1.59889 25.1184 0.413049C28.6739 -0.772795 32.585 0.729274 34.1652 4.1287C34.7578 5.35407 35.3899 5.70982 36.6936 5.67029C50.5996 5.63077 64.5057 5.67029 78.4117 5.67029H80.466C80.466 4.32634 80.466 3.21955 80.466 2.11276C80.466 0.808331 81.1376 0.096824 82.4808 0.096824C86.1548 0.096824 89.8289 0.096824 93.5029 0.096824C94.8066 0.096824 95.4782 0.808331 95.5177 2.11276C95.5177 3.21955 95.5177 4.36586 95.5177 5.59124C96.1893 5.59124 96.7424 5.67029 97.2559 5.67029C111.359 5.67029 125.503 5.67029 139.606 5.67029C140.633 5.67029 141.186 5.47265 141.66 4.40539C143.083 1.12456 146.678 -0.575155 150.115 0.17588C153.591 0.966443 156.041 4.04964 156.001 7.56765C156.001 11.1252 153.473 14.2479 150.075 14.9594C146.599 15.6709 143.122 13.9712 141.621 10.7299C141.423 10.3346 141.305 9.93934 141.107 9.54405H110.293C135.102 20.3748 148.376 39.1506 150.51 66.1484C151.576 66.1484 152.683 66.1484 153.789 66.1484C155.25 66.1484 156.001 66.8994 156.001 68.362C156.001 71.9195 156.001 75.5165 156.001 79.0741C156.001 80.5366 155.25 81.2481 153.789 81.2481C150.273 81.2481 146.757 81.2481 143.241 81.2481C141.621 81.2481 140.949 80.5762 140.949 78.995C140.949 75.477 140.949 71.959 140.949 68.441C140.949 66.8204 141.581 66.1879 143.201 66.1484C144.228 66.1484 145.255 66.1484 146.52 66.1484C146.006 52.5112 141.542 40.5737 132.89 30.2568C123.172 18.7541 110.727 12.0739 95.5967 9.93933C95.5967 11.1252 95.5967 12.1134 95.5967 13.0621C95.5967 14.3665 94.8856 15.078 93.5819 15.078C89.9079 15.078 86.2338 15.078 82.5598 15.078C81.2561 15.078 80.5845 14.3665 80.545 13.0621C80.545 12.1529 80.545 11.2438 80.545 10.0184C68.0612 11.639 57.3156 16.5801 48.2688 25.0391C36.4566 36.0674 30.3332 49.7837 29.5431 66.1879C30.8467 66.1879 31.9924 66.1879 33.0986 66.1879C34.4418 66.2274 35.1924 66.9389 35.1924 68.3224C35.1924 71.959 35.1924 75.5956 35.1924 79.1927C35.1924 80.5762 34.4023 81.2877 33.0591 81.2877C29.5035 81.2877 25.9085 81.2877 22.353 81.2877C20.8913 81.2877 20.1407 80.5366 20.1407 79.0741C20.1407 75.5165 20.1407 71.9195 20.1407 68.362C20.1407 66.8994 20.8913 66.1879 22.353 66.1484C23.4197 66.1484 24.5258 66.1484 25.79 66.1484C26.3036 53.5784 29.9776 42.0757 37.2467 31.8379C44.5157 21.6397 54.0366 14.327 66.1254 9.58358H34.9948L34.8763 9.62311Z" fill="#092EEC"/>
<path d="M88.0107 147.387C79.3985 147.387 70.7467 147.387 62.1345 147.387C60.1987 147.387 59.7246 146.952 59.7246 145.015C59.7246 142.327 59.7246 139.639 59.7246 136.912C59.7246 135.331 60.2382 134.817 61.8579 134.817C79.28 134.817 96.702 134.817 114.164 134.817C115.823 134.817 116.297 135.331 116.297 137.03C116.297 139.718 116.297 142.406 116.297 145.134C116.297 146.873 115.783 147.387 114.045 147.387C105.393 147.387 96.702 147.387 88.0502 147.387H88.0107Z" stroke="black" stroke-width="3.6" stroke-miterlimit="10"/>
<path d="M116.297 153.395C116.297 157.822 116.297 162.131 116.297 166.479C116.297 167.625 115.625 168.258 114.48 168.337C114.045 168.337 113.61 168.337 113.176 168.337C96.4255 168.337 79.6355 168.337 62.8851 168.337C60.0407 168.337 59.7246 168.02 59.7246 165.174C59.7246 161.301 59.7246 157.387 59.7246 153.395H116.297Z" stroke="black" stroke-width="3.6" stroke-miterlimit="10"/>
</svg>
