<svg width="170" height="231" viewBox="0 0 170 231" fill="none" xmlns="http://www.w3.org/2000/svg">
<path d="M1.3125 223.633V203.269H10.1023C11.6136 203.269 12.9361 203.567 14.0696 204.164C15.2031 204.761 16.0848 205.599 16.7145 206.68C17.3442 207.76 17.6591 209.023 17.6591 210.468C17.6591 211.926 17.3343 213.189 16.6847 214.256C16.0417 215.324 15.1368 216.146 13.9702 216.722C12.8101 217.299 11.4545 217.587 9.90341 217.587H4.65341V213.292H8.78977C9.43939 213.292 9.9929 213.179 10.4503 212.954C10.9143 212.722 11.2689 212.394 11.5142 211.969C11.7661 211.545 11.892 211.045 11.892 210.468C11.892 209.885 11.7661 209.388 11.5142 208.977C11.2689 208.559 10.9143 208.241 10.4503 208.022C9.9929 207.797 9.43939 207.684 8.78977 207.684H6.84091V223.633H1.3125ZM25.2991 223.871C24.3247 223.871 23.463 223.712 22.7139 223.394C21.9715 223.069 21.3881 222.579 20.9639 221.923C20.5397 221.266 20.3275 220.431 20.3275 219.417C20.3275 218.582 20.4701 217.869 20.7551 217.279C21.0401 216.683 21.4379 216.195 21.9483 215.817C22.4587 215.44 23.052 215.151 23.7281 214.952C24.4109 214.754 25.1467 214.624 25.9355 214.565C26.7906 214.498 27.4767 214.419 27.9937 214.326C28.5174 214.227 28.8953 214.091 29.1273 213.918C29.3593 213.739 29.4753 213.504 29.4753 213.212V213.173C29.4753 212.775 29.3228 212.47 29.0179 212.258C28.713 212.046 28.3219 211.94 27.8446 211.94C27.3209 211.94 26.8934 212.056 26.5619 212.288C26.2371 212.513 26.0416 212.861 25.9753 213.332H20.9241C20.9904 212.404 21.2854 211.549 21.8091 210.766C22.3394 209.978 23.1116 209.348 24.1258 208.877C25.14 208.4 26.4061 208.161 27.9241 208.161C29.0179 208.161 29.9989 208.29 30.8673 208.549C31.7357 208.801 32.4748 209.156 33.0846 209.613C33.6945 210.064 34.1585 210.594 34.4767 211.204C34.8015 211.807 34.9639 212.463 34.9639 213.173V223.633H29.8332V221.485H29.7139C29.409 222.055 29.0378 222.516 28.6003 222.867C28.1694 223.219 27.6756 223.474 27.1187 223.633C26.5685 223.792 25.962 223.871 25.2991 223.871ZM27.0889 220.411C27.5065 220.411 27.8976 220.325 28.2622 220.153C28.6334 219.98 28.935 219.732 29.167 219.407C29.399 219.082 29.515 218.688 29.515 218.224V216.951C29.3692 217.011 29.2134 217.067 29.0477 217.12C28.8886 217.173 28.7163 217.223 28.5307 217.269C28.3517 217.316 28.1595 217.359 27.954 217.398C27.7551 217.438 27.5463 217.475 27.3275 217.508C26.9033 217.574 26.5553 217.683 26.2835 217.836C26.0184 217.982 25.8195 218.164 25.6869 218.383C25.561 218.595 25.498 218.834 25.498 219.099C25.498 219.523 25.6471 219.848 25.9454 220.073C26.2437 220.299 26.6249 220.411 27.0889 220.411ZM46.9044 223.911C45.2472 223.911 43.8286 223.583 42.6487 222.927C41.4688 222.264 40.5639 221.343 39.9342 220.163C39.3045 218.976 38.9896 217.601 38.9896 216.036C38.9896 214.472 39.3045 213.1 39.9342 211.92C40.5639 210.733 41.4688 209.812 42.6487 209.156C43.8286 208.493 45.2472 208.161 46.9044 208.161C48.4025 208.161 49.6984 208.433 50.7922 208.977C51.8925 209.513 52.7443 210.276 53.3476 211.263C53.9508 212.245 54.2557 213.398 54.2623 214.724H49.1714C49.0985 213.922 48.8665 213.312 48.4754 212.894C48.0909 212.47 47.5938 212.258 46.9839 212.258C46.5066 212.258 46.089 212.397 45.7311 212.675C45.3731 212.947 45.0947 213.362 44.8959 213.918C44.697 214.469 44.5976 215.161 44.5976 215.996C44.5976 216.832 44.697 217.528 44.8959 218.085C45.0947 218.635 45.3731 219.049 45.7311 219.327C46.089 219.599 46.5066 219.735 46.9839 219.735C47.3883 219.735 47.7462 219.642 48.0578 219.457C48.3693 219.264 48.6212 218.986 48.8135 218.621C49.0123 218.25 49.1316 217.799 49.1714 217.269H54.2623C54.2424 218.615 53.9342 219.788 53.3376 220.789C52.741 221.783 51.8959 222.552 50.8021 223.096C49.715 223.639 48.4157 223.911 46.9044 223.911ZM63.4187 220.013L63.4585 213.491H64.1744L67.8733 208.36H74.038L67.8335 216.354H66.2823L63.4187 220.013ZM58.4869 223.633V203.269H63.9755V223.633H58.4869ZM67.913 223.633L64.413 217.587L67.9926 213.69L74.1971 223.633H67.913ZM81.683 223.871C80.7086 223.871 79.8469 223.712 79.0978 223.394C78.3554 223.069 77.7721 222.579 77.3478 221.923C76.9236 221.266 76.7114 220.431 76.7114 219.417C76.7114 218.582 76.854 217.869 77.139 217.279C77.424 216.683 77.8218 216.195 78.3322 215.817C78.8426 215.44 79.4359 215.151 80.112 214.952C80.7948 214.754 81.5306 214.624 82.3194 214.565C83.1745 214.498 83.8606 214.419 84.3776 214.326C84.9013 214.227 85.2792 214.091 85.5112 213.918C85.7432 213.739 85.8592 213.504 85.8592 213.212V213.173C85.8592 212.775 85.7067 212.47 85.4018 212.258C85.0969 212.046 84.7058 211.94 84.2285 211.94C83.7048 211.94 83.2773 212.056 82.9458 212.288C82.621 212.513 82.4255 212.861 82.3592 213.332H77.308C77.3743 212.404 77.6693 211.549 78.193 210.766C78.7233 209.978 79.4955 209.348 80.5097 208.877C81.5239 208.4 82.79 208.161 84.308 208.161C85.4018 208.161 86.3828 208.29 87.2512 208.549C88.1196 208.801 88.8587 209.156 89.4685 209.613C90.0784 210.064 90.5424 210.594 90.8606 211.204C91.1854 211.807 91.3478 212.463 91.3478 213.173V223.633H86.2171V221.485H86.0978C85.7929 222.055 85.4217 222.516 84.9842 222.867C84.5533 223.219 84.0595 223.474 83.5026 223.633C82.9524 223.792 82.3459 223.871 81.683 223.871ZM83.4728 220.411C83.8904 220.411 84.2815 220.325 84.6461 220.153C85.0173 219.98 85.3189 219.732 85.5509 219.407C85.7829 219.082 85.8989 218.688 85.8989 218.224V216.951C85.7531 217.011 85.5973 217.067 85.4316 217.12C85.2725 217.173 85.1002 217.223 84.9146 217.269C84.7356 217.316 84.5434 217.359 84.3379 217.398C84.139 217.438 83.9302 217.475 83.7114 217.508C83.2872 217.574 82.9392 217.683 82.6674 217.836C82.4023 217.982 82.2034 218.164 82.0708 218.383C81.9449 218.595 81.8819 218.834 81.8819 219.099C81.8819 219.523 82.031 219.848 82.3293 220.073C82.6276 220.299 83.0088 220.411 83.4728 220.411ZM103.288 229.678C101.757 229.678 100.445 229.46 99.3508 229.022C98.2637 228.591 97.4185 227.995 96.8153 227.232C96.2187 226.477 95.8839 225.608 95.811 224.627H101.101C101.154 224.952 101.286 225.214 101.499 225.413C101.711 225.612 101.982 225.754 102.314 225.84C102.652 225.933 103.03 225.979 103.447 225.979C104.157 225.979 104.743 225.807 105.207 225.462C105.678 225.118 105.913 224.495 105.913 223.593V221.008H105.754C105.555 221.525 105.25 221.966 104.839 222.33C104.428 222.688 103.935 222.963 103.358 223.156C102.781 223.341 102.148 223.434 101.459 223.434C100.372 223.434 99.3707 223.182 98.4559 222.678C97.5478 222.174 96.8186 221.376 96.2684 220.282C95.7248 219.188 95.4531 217.76 95.4531 215.996C95.4531 214.154 95.7381 212.656 96.3082 211.502C96.8849 210.349 97.6273 209.504 98.5354 208.967C99.4502 208.43 100.411 208.161 101.419 208.161C102.175 208.161 102.838 208.294 103.408 208.559C103.978 208.817 104.455 209.165 104.839 209.603C105.224 210.034 105.516 210.508 105.714 211.025H105.834V208.36H111.322V223.593C111.322 224.886 110.988 225.983 110.318 226.884C109.655 227.792 108.721 228.485 107.514 228.962C106.308 229.44 104.899 229.678 103.288 229.678ZM103.487 219.536C103.991 219.536 104.422 219.397 104.78 219.119C105.144 218.834 105.423 218.429 105.615 217.906C105.814 217.375 105.913 216.739 105.913 215.996C105.913 215.241 105.814 214.594 105.615 214.058C105.423 213.514 105.144 213.1 104.78 212.815C104.422 212.523 103.991 212.377 103.487 212.377C102.983 212.377 102.552 212.523 102.195 212.815C101.843 213.1 101.571 213.514 101.379 214.058C101.194 214.594 101.101 215.241 101.101 215.996C101.101 216.752 101.194 217.395 101.379 217.925C101.571 218.449 101.843 218.85 102.195 219.129C102.552 219.4 102.983 219.536 103.487 219.536ZM116.074 223.633V208.36H121.563V223.633H116.074ZM118.818 206.769C118.076 206.769 117.439 206.524 116.909 206.033C116.379 205.543 116.114 204.953 116.114 204.263C116.114 203.574 116.379 202.984 116.909 202.494C117.439 202.003 118.076 201.758 118.818 201.758C119.567 201.758 120.204 202.003 120.727 202.494C121.258 202.984 121.523 203.574 121.523 204.263C121.523 204.953 121.258 205.543 120.727 206.033C120.204 206.524 119.567 206.769 118.818 206.769ZM131.808 215.042V223.633H126.319V208.36H131.529V211.263H131.688C132.02 210.296 132.603 209.537 133.438 208.987C134.28 208.436 135.261 208.161 136.382 208.161C137.462 208.161 138.4 208.41 139.195 208.907C139.998 209.397 140.617 210.074 141.055 210.935C141.499 211.797 141.718 212.781 141.711 213.888V223.633H136.222V215.042C136.229 214.286 136.037 213.693 135.646 213.262C135.261 212.831 134.724 212.616 134.035 212.616C133.584 212.616 133.19 212.715 132.852 212.914C132.52 213.106 132.265 213.385 132.086 213.749C131.907 214.107 131.814 214.538 131.808 215.042ZM153.739 229.678C152.207 229.678 150.895 229.46 149.801 229.022C148.714 228.591 147.869 227.995 147.266 227.232C146.669 226.477 146.334 225.608 146.261 224.627H151.551C151.604 224.952 151.737 225.214 151.949 225.413C152.161 225.612 152.433 225.754 152.764 225.84C153.102 225.933 153.48 225.979 153.898 225.979C154.607 225.979 155.194 225.807 155.658 225.462C156.128 225.118 156.364 224.495 156.364 223.593V221.008H156.204C156.006 221.525 155.701 221.966 155.29 222.33C154.879 222.688 154.385 222.963 153.808 223.156C153.231 223.341 152.598 223.434 151.909 223.434C150.822 223.434 149.821 223.182 148.906 222.678C147.998 222.174 147.269 221.376 146.719 220.282C146.175 219.188 145.903 217.76 145.903 215.996C145.903 214.154 146.188 212.656 146.758 211.502C147.335 210.349 148.078 209.504 148.986 208.967C149.901 208.43 150.862 208.161 151.869 208.161C152.625 208.161 153.288 208.294 153.858 208.559C154.428 208.817 154.905 209.165 155.29 209.603C155.674 210.034 155.966 210.508 156.165 211.025H156.284V208.36H161.773V223.593C161.773 224.886 161.438 225.983 160.768 226.884C160.106 227.792 159.171 228.485 157.964 228.962C156.758 229.44 155.349 229.678 153.739 229.678ZM153.937 219.536C154.441 219.536 154.872 219.397 155.23 219.119C155.595 218.834 155.873 218.429 156.065 217.906C156.264 217.375 156.364 216.739 156.364 215.996C156.364 215.241 156.264 214.594 156.065 214.058C155.873 213.514 155.595 213.1 155.23 212.815C154.872 212.523 154.441 212.377 153.937 212.377C153.434 212.377 153.003 212.523 152.645 212.815C152.294 213.1 152.022 213.514 151.829 214.058C151.644 214.594 151.551 215.241 151.551 215.996C151.551 216.752 151.644 217.395 151.829 217.925C152.022 218.449 152.294 218.85 152.645 219.129C153.003 219.4 153.434 219.536 153.937 219.536Z" fill="black"/>
<g clip-path="url(#clip0_71_577)">
<path d="M133.371 98.2373C132.693 90.6673 132.79 83.065 132.847 75.4627C131.271 77.0259 129.691 78.5971 128.115 80.1643C128.098 83.2423 128.058 86.3162 128.025 89.3942C128.07 89.4103 128.115 89.4224 128.171 89.4385C128.171 89.4587 128.171 89.4788 128.171 89.4949C128.176 108.237 128.18 126.983 128.171 145.724C128.171 148.488 127.363 149.262 124.515 149.262C106.175 149.262 87.8341 149.262 69.4893 149.262C66.7433 149.262 65.9349 148.48 65.9349 145.793C65.9349 111.472 65.9349 77.1508 65.9349 42.8298C65.9349 42.4712 65.9593 42.1086 65.9836 41.7138C65.9999 41.464 66.2071 41.2706 66.4589 41.2706H127.627C127.883 41.2706 128.098 41.4721 128.102 41.7259C128.167 43.9981 128.7 46.2542 126.327 48.0631C124.633 49.3564 123.252 51.0565 122.143 52.2087C122.034 52.3215 121.875 52.3699 121.721 52.3457C119.629 51.9952 117.996 51.5319 116.363 51.5238C103.343 51.4594 90.3201 51.4876 77.2968 51.4876C72.9543 51.4876 71.1223 53.3126 71.1182 57.6274C71.1182 62.2524 71.106 66.8734 71.1182 71.4984C71.1304 75.1686 73.1656 77.1911 76.85 77.1951C82.8782 77.2032 88.9105 77.1951 94.9388 77.1951H95.3085C97.3639 76.5505 99.9434 77.0541 101.979 77.038C102.909 77.0299 103.839 77.0219 104.765 77.0058C114.015 67.8323 123.281 58.6427 132.518 49.4772C132.477 45.5774 132.498 41.6775 132.66 37.7817C131.636 35.6384 129.703 34.184 127.92 32.6209C122.273 27.6575 116.623 22.7021 111.029 17.6782C110.489 17.1907 110.127 16.2722 110.074 15.5269C109.944 13.5769 110.03 11.6109 110.03 9.65292C110.03 4.01668 108.831 2.15942 103.79 0.032231C103.729 0.00805841 103.664 -0.00805664 103.599 -0.00805664H43.6132C43.5483 -0.00805664 43.4792 0.00402964 43.4183 0.032231C42.9999 0.217554 42.5815 0.402877 42.1671 0.592229C39.1814 1.95798 37.5078 4.24229 37.4144 7.52573C37.3412 10.1364 37.3412 12.751 37.4144 15.3657C37.4428 16.4212 37.1097 17.1222 36.3176 17.8152C29.8912 23.4273 23.5177 29.0997 17.0873 34.7038C14.9627 36.5691 14 38.801 14 41.605C14.0244 76.3813 14.0162 111.154 14.0162 145.93C14.0162 151.28 17.1969 154.402 22.6443 154.402C56.6934 154.402 90.7426 154.402 124.796 154.402C130.215 154.402 133.371 151.284 133.375 145.873C133.387 129.996 133.383 114.119 133.367 98.2414L133.371 98.2373ZM116.732 57.4945C116.7 57.5307 116.667 57.563 116.635 57.5952C112.049 62.1477 107.475 66.7042 102.856 71.2245C102.438 71.6354 101.763 72.0262 101.207 72.0302C93.1515 72.0786 85.0921 72.0625 77.0368 72.0584C76.9556 72.0584 76.8743 72.0504 76.789 72.0343C76.5615 71.998 76.395 71.8006 76.395 71.571V57.1802C76.395 56.9224 76.6062 56.7089 76.8703 56.7089H116.383C116.793 56.7089 117.013 57.1963 116.736 57.4945H116.732ZM42.6911 7.11077C42.7521 5.97868 43.7473 5.32602 44.9131 5.1689C45.36 5.10847 45.8231 5.13667 46.278 5.13667C64.5619 5.13667 82.8457 5.13667 101.125 5.13667C104.046 5.13667 104.846 5.91825 104.855 8.77867C104.859 10.7769 104.855 12.7792 104.855 14.8984C104.855 15.1562 104.643 15.3697 104.379 15.3697H43.1136C42.8536 15.3697 42.6424 15.1602 42.6424 14.9024C42.6343 12.2797 42.553 9.68917 42.6911 7.11077ZM24.5292 35.0623C29.6881 30.5179 34.6277 26.1628 39.6526 21.7392C39.8314 21.5821 40.1035 21.5821 40.2823 21.7392C45.2828 26.1426 50.2427 30.5138 55.4057 35.0623C55.7307 35.3484 55.5276 35.8882 55.093 35.8882H24.8419C24.4073 35.8882 24.2042 35.3524 24.5292 35.0623ZM60.8084 148.794C60.8084 149.052 60.5972 149.266 60.3332 149.266H57.9243C46.1684 149.266 34.4165 149.266 22.6606 149.266C20.0608 149.266 19.1915 148.408 19.1915 145.833C19.1915 111.464 19.1915 77.0944 19.1915 42.725V41.7622C19.1915 41.5043 19.4027 41.2908 19.6667 41.2908H60.3332C60.5931 41.2908 60.8084 41.5003 60.8084 41.7622V148.794ZM48.1913 21.8077C48.037 21.6747 47.8907 21.5337 47.7201 21.3726C47.4114 21.0785 47.6185 20.5588 48.0451 20.5588H48.6828C67.3688 20.5588 86.0589 20.5467 104.745 20.5991C105.643 20.5991 106.93 21.0785 107.609 21.6667C112.642 26.0097 117.61 30.4252 122.598 34.8246C122.375 35.4128 122.367 35.433 122.139 36.0212H121.631C103.088 36.0212 84.5437 36.0131 65.9999 36.0453C64.7569 36.0453 63.8713 35.7109 62.9289 34.8568C58.0665 30.4534 53.1106 26.1507 48.1873 21.8117L48.1913 21.8077Z" fill="black"/>
</g>
<path d="M144.17 34.3042L160.56 50.6951" stroke="#092EEC" stroke-width="4" stroke-miterlimit="10"/>
<path d="M137.077 41.3984L145.271 49.5928L153.467 57.7893" stroke="#092EEC" stroke-width="4" stroke-miterlimit="10"/>
<path d="M145.27 49.5928L101.671 93.1951" stroke="#092EEC" stroke-width="4" stroke-miterlimit="10"/>
<path d="M158.709 29.9657L164.899 36.1567C167.715 38.9723 167.37 43.8873 164.13 47.1278L114.389 96.8718C111.892 99.3687 108.104 99.6345 105.935 97.465L96.8946 88.4244C95.0063 86.536 95.2376 83.2398 97.4107 81.0665L147.738 30.7353C150.979 27.4949 155.893 27.1501 158.709 29.9657Z" stroke="#092EEC" stroke-width="4" stroke-miterlimit="10"/>
<path d="M95.6454 84.5456L90.9083 101.986C90.5888 103.081 91.562 104.138 92.6823 103.92L111.903 98.6656C111.903 98.6656 108.24 98.7336 107.269 97.8914C105.511 96.3681 100.91 91.8519 101.249 92.0662L96.8125 87.5628L95.6521 84.5434L95.6454 84.5456Z" stroke="#092EEC" stroke-width="4" stroke-linecap="round" stroke-linejoin="round"/>
<defs>
<clipPath id="clip0_71_577">
<rect width="119.383" height="154.402" fill="white" transform="translate(14)"/>
</clipPath>
</defs>
</svg>
