<svg width="352" height="95" viewBox="0 0 352 95" fill="none" xmlns="http://www.w3.org/2000/svg">
<path d="M24.1164 95L-7.62939e-06 95L-6.95363e-06 7.47816e-06L89 7.62939e-06L24.1164 95Z" fill="#1C1C1C"/>
<path d="M106.291 1.14159e-05L128 1.52116e-05L61.4596 95L41 95L106.291 1.14159e-05Z" fill="#1C1C1C" fill-opacity="0.86"/>
<path d="M142.79 1.11535e-05L164 1.48619e-05L98.9892 95L79 95L142.79 1.11535e-05Z" fill="#1C1C1C" fill-opacity="0.76"/>
<path d="M254.79 1.11535e-05L276 1.48619e-05L210.989 95L191 95L254.79 1.11535e-05Z" fill="#1C1C1C" fill-opacity="0.37"/>
<path d="M180.291 1.14159e-05L202 1.52116e-05L135.46 95L115 95L180.291 1.14159e-05Z" fill="#1C1C1C" fill-opacity="0.62"/>
<path d="M292.291 1.14159e-05L314 1.52116e-05L247.46 95L227 95L292.291 1.14159e-05Z" fill="#1C1C1C" fill-opacity="0.23"/>
<path d="M218.291 1.14159e-05L240 1.52116e-05L173.46 95L153 95L218.291 1.14159e-05Z" fill="#1C1C1C" fill-opacity="0.58"/>
<path d="M330.291 1.14159e-05L352 1.52116e-05L285.46 95L265 95L330.291 1.14159e-05Z" fill="#1C1C1C" fill-opacity="0.15"/>
</svg>
