<svg width="346" height="95" viewBox="0 0 346 95" fill="none" xmlns="http://www.w3.org/2000/svg">
<path d="M324.291 0H346V95H259L324.291 0Z" fill="#092EEC"/>
<path d="M324.291 0H346V95H259L324.291 0Z" fill="#092EEC"/>
<path d="M242.709 95L221 95L287.54 5.84076e-06L308 1.52588e-05L242.709 95Z" fill="#384CFF" fill-opacity="0.8"/>
<path d="M206.459 95L185 95L250.776 5.86132e-06L271 1.52588e-05L206.459 95Z" fill="#384CFF" fill-opacity="0.73"/>
<path d="M169.709 95L148 95L214.54 5.84076e-06L235 1.52588e-05L169.709 95Z" fill="#384CFF" fill-opacity="0.53"/>
<path opacity="0.3" d="M95.7088 95L74 95L140.54 5.84076e-06L161 1.52588e-05L95.7088 95Z" fill="#384CFF"/>
<path d="M132.709 95L111 95L177.54 5.84076e-06L198 1.52588e-05L132.709 95Z" fill="#384CFF" fill-opacity="0.3"/>
<path opacity="0.3" d="M58.7088 95L37 95L103.54 5.84076e-06L124 1.52588e-05L58.7088 95Z" fill="#384CFF" fill-opacity="0.42"/>
<path opacity="0.3" d="M21.7088 95L-7.62939e-06 95L66.5404 5.84076e-06L87 1.52588e-05L21.7088 95Z" fill="#384CFF" fill-opacity="0.23"/>
</svg>
