<svg width="198" height="238" viewBox="0 0 198 238" fill="none" xmlns="http://www.w3.org/2000/svg">
<path d="M0.755682 215.091V210.636H18.4545V215.091H12.3295V231H6.88068V215.091H0.755682ZM24.1656 236.727C23.5359 236.727 22.936 236.678 22.3659 236.578C21.7958 236.485 21.2953 236.356 20.8645 236.19L22.0577 232.293C22.5084 232.452 22.9194 232.554 23.2906 232.601C23.6685 232.647 23.9899 232.621 24.2551 232.521C24.5269 232.422 24.7224 232.233 24.8417 231.955L24.9611 231.676L19.5917 215.727H25.319L27.7849 226.307H27.944L30.4497 215.727H36.2167L30.6486 232.273C30.3702 233.115 29.9658 233.87 29.4355 234.54C28.9118 235.216 28.2224 235.75 27.3673 236.141C26.5122 236.532 25.445 236.727 24.1656 236.727ZM39.7378 236.727V215.727H45.1867V218.392H45.306C45.5049 217.875 45.7965 217.401 46.181 216.97C46.5655 216.533 47.0427 216.185 47.6128 215.926C48.1829 215.661 48.8458 215.528 49.6015 215.528C50.609 215.528 51.5669 215.797 52.475 216.334C53.3898 216.871 54.1322 217.716 54.7023 218.869C55.279 220.023 55.5674 221.521 55.5674 223.364C55.5674 225.127 55.2923 226.589 54.7421 227.749C54.1985 228.909 53.4694 229.774 52.5546 230.344C51.6464 230.914 50.6488 231.199 49.5617 231.199C48.8458 231.199 48.2061 231.083 47.6427 230.851C47.0858 230.612 46.6086 230.291 46.2108 229.886C45.8197 229.475 45.5181 229.011 45.306 228.494H45.2265V236.727H39.7378ZM45.1071 223.364C45.1071 224.106 45.2033 224.749 45.3955 225.293C45.5944 225.83 45.8728 226.247 46.2307 226.545C46.5953 226.837 47.0295 226.983 47.5333 226.983C48.0371 226.983 48.4646 226.84 48.8159 226.555C49.1739 226.264 49.4457 225.849 49.6313 225.312C49.8235 224.769 49.9196 224.119 49.9196 223.364C49.9196 222.608 49.8235 221.962 49.6313 221.425C49.4457 220.881 49.1739 220.467 48.8159 220.182C48.4646 219.89 48.0371 219.744 47.5333 219.744C47.0295 219.744 46.5953 219.89 46.2307 220.182C45.8728 220.467 45.5944 220.881 45.3955 221.425C45.2033 221.962 45.1071 222.608 45.1071 223.364ZM67.1847 231.278C65.5275 231.278 64.1089 230.95 62.929 230.294C61.7491 229.631 60.8443 228.71 60.2145 227.53C59.5848 226.343 59.2699 224.968 59.2699 223.403C59.2699 221.839 59.5848 220.467 60.2145 219.287C60.8443 218.1 61.7491 217.179 62.929 216.523C64.1089 215.86 65.5275 215.528 67.1847 215.528C68.8419 215.528 70.2604 215.86 71.4404 216.523C72.6203 217.179 73.5251 218.1 74.1549 219.287C74.7846 220.467 75.0995 221.839 75.0995 223.403C75.0995 224.968 74.7846 226.343 74.1549 227.53C73.5251 228.71 72.6203 229.631 71.4404 230.294C70.2604 230.95 68.8419 231.278 67.1847 231.278ZM67.2245 227.222C67.6885 227.222 68.0895 227.066 68.4276 226.754C68.7657 226.443 69.0275 225.999 69.2131 225.422C69.3987 224.845 69.4915 224.159 69.4915 223.364C69.4915 222.562 69.3987 221.875 69.2131 221.305C69.0275 220.729 68.7657 220.285 68.4276 219.973C68.0895 219.661 67.6885 219.506 67.2245 219.506C66.7339 219.506 66.313 219.661 65.9617 219.973C65.6104 220.285 65.3419 220.729 65.1563 221.305C64.9707 221.875 64.8779 222.562 64.8779 223.364C64.8779 224.159 64.9707 224.845 65.1563 225.422C65.3419 225.999 65.6104 226.443 65.9617 226.754C66.313 227.066 66.7339 227.222 67.2245 227.222ZM86.6447 237.045C85.1134 237.045 83.8009 236.827 82.7072 236.389C81.6201 235.958 80.7749 235.362 80.1717 234.599C79.5751 233.844 79.2403 232.975 79.1674 231.994H84.4572C84.5102 232.319 84.6428 232.581 84.8549 232.78C85.067 232.979 85.3388 233.121 85.6703 233.207C86.0083 233.3 86.3862 233.347 86.8038 233.347C87.5131 233.347 88.0997 233.174 88.5637 232.83C89.0344 232.485 89.2697 231.862 89.2697 230.96V228.375H89.1106C88.9117 228.892 88.6068 229.333 88.1958 229.697C87.7848 230.055 87.291 230.33 86.7143 230.523C86.1376 230.708 85.5045 230.801 84.8151 230.801C83.728 230.801 82.7271 230.549 81.8123 230.045C80.9042 229.542 80.175 228.743 79.6248 227.649C79.0812 226.555 78.8095 225.127 78.8095 223.364C78.8095 221.521 79.0945 220.023 79.6646 218.869C80.2413 217.716 80.9837 216.871 81.8918 216.334C82.8066 215.797 83.7678 215.528 84.7754 215.528C85.531 215.528 86.1939 215.661 86.764 215.926C87.3341 216.185 87.8114 216.533 88.1958 216.97C88.5803 217.401 88.872 217.875 89.0708 218.392H89.1901V215.727H94.6788V230.96C94.6788 232.253 94.344 233.35 93.6745 234.251C93.0116 235.16 92.077 235.852 90.8705 236.33C89.6641 236.807 88.2555 237.045 86.6447 237.045ZM86.8435 226.903C87.3473 226.903 87.7782 226.764 88.1362 226.486C88.5007 226.201 88.7792 225.796 88.9714 225.273C89.1703 224.742 89.2697 224.106 89.2697 223.364C89.2697 222.608 89.1703 221.962 88.9714 221.425C88.7792 220.881 88.5007 220.467 88.1362 220.182C87.7782 219.89 87.3473 219.744 86.8435 219.744C86.3398 219.744 85.9089 219.89 85.5509 220.182C85.1996 220.467 84.9278 220.881 84.7356 221.425C84.55 221.962 84.4572 222.608 84.4572 223.364C84.4572 224.119 84.55 224.762 84.7356 225.293C84.9278 225.816 85.1996 226.217 85.5509 226.496C85.9089 226.768 86.3398 226.903 86.8435 226.903ZM99.4303 231V215.727H104.76V218.631H104.919C105.197 217.557 105.638 216.771 106.241 216.274C106.851 215.777 107.564 215.528 108.379 215.528C108.618 215.528 108.853 215.548 109.085 215.588C109.324 215.621 109.552 215.671 109.771 215.737V220.42C109.499 220.328 109.165 220.258 108.767 220.212C108.369 220.165 108.028 220.142 107.743 220.142C107.206 220.142 106.722 220.265 106.291 220.51C105.867 220.749 105.532 221.087 105.287 221.524C105.042 221.955 104.919 222.462 104.919 223.045V231H99.4303ZM117.076 231.239C116.101 231.239 115.24 231.08 114.49 230.761C113.748 230.437 113.165 229.946 112.74 229.29C112.316 228.634 112.104 227.798 112.104 226.784C112.104 225.949 112.247 225.236 112.532 224.646C112.817 224.05 113.214 223.562 113.725 223.185C114.235 222.807 114.829 222.518 115.505 222.32C116.187 222.121 116.923 221.991 117.712 221.932C118.567 221.866 119.253 221.786 119.77 221.693C120.294 221.594 120.672 221.458 120.904 221.286C121.136 221.107 121.252 220.871 121.252 220.58V220.54C121.252 220.142 121.099 219.837 120.794 219.625C120.49 219.413 120.098 219.307 119.621 219.307C119.097 219.307 118.67 219.423 118.338 219.655C118.014 219.88 117.818 220.228 117.752 220.699H112.701C112.767 219.771 113.062 218.916 113.586 218.134C114.116 217.345 114.888 216.715 115.902 216.244C116.917 215.767 118.183 215.528 119.701 215.528C120.794 215.528 121.776 215.658 122.644 215.916C123.512 216.168 124.251 216.523 124.861 216.98C125.471 217.431 125.935 217.961 126.253 218.571C126.578 219.174 126.74 219.83 126.74 220.54V231H121.61V228.852H121.49C121.186 229.422 120.814 229.883 120.377 230.234C119.946 230.586 119.452 230.841 118.895 231C118.345 231.159 117.739 231.239 117.076 231.239ZM118.865 227.778C119.283 227.778 119.674 227.692 120.039 227.52C120.41 227.348 120.712 227.099 120.944 226.774C121.176 226.449 121.292 226.055 121.292 225.591V224.318C121.146 224.378 120.99 224.434 120.824 224.487C120.665 224.54 120.493 224.59 120.307 224.636C120.128 224.683 119.936 224.726 119.731 224.766C119.532 224.805 119.323 224.842 119.104 224.875C118.68 224.941 118.332 225.051 118.06 225.203C117.795 225.349 117.596 225.531 117.463 225.75C117.338 225.962 117.275 226.201 117.275 226.466C117.275 226.89 117.424 227.215 117.722 227.44C118.02 227.666 118.401 227.778 118.865 227.778ZM131.323 236.727V215.727H136.772V218.392H136.891C137.09 217.875 137.382 217.401 137.766 216.97C138.151 216.533 138.628 216.185 139.198 215.926C139.768 215.661 140.431 215.528 141.187 215.528C142.194 215.528 143.152 215.797 144.06 216.334C144.975 216.871 145.717 217.716 146.287 218.869C146.864 220.023 147.153 221.521 147.153 223.364C147.153 225.127 146.877 226.589 146.327 227.749C145.784 228.909 145.055 229.774 144.14 230.344C143.232 230.914 142.234 231.199 141.147 231.199C140.431 231.199 139.791 231.083 139.228 230.851C138.671 230.612 138.194 230.291 137.796 229.886C137.405 229.475 137.103 229.011 136.891 228.494H136.812V236.727H131.323ZM136.692 223.364C136.692 224.106 136.788 224.749 136.981 225.293C137.18 225.83 137.458 226.247 137.816 226.545C138.18 226.837 138.615 226.983 139.118 226.983C139.622 226.983 140.05 226.84 140.401 226.555C140.759 226.264 141.031 225.849 141.216 225.312C141.409 224.769 141.505 224.119 141.505 223.364C141.505 222.608 141.409 221.962 141.216 221.425C141.031 220.881 140.759 220.467 140.401 220.182C140.05 219.89 139.622 219.744 139.118 219.744C138.615 219.744 138.18 219.89 137.816 220.182C137.458 220.467 137.18 220.881 136.981 221.425C136.788 221.962 136.692 222.608 136.692 223.364ZM156.901 222.409V231H151.412V210.636H156.702V218.631H156.861C157.205 217.656 157.779 216.897 158.581 216.354C159.383 215.804 160.347 215.528 161.474 215.528C162.555 215.528 163.493 215.774 164.288 216.264C165.09 216.755 165.71 217.431 166.148 218.293C166.592 219.154 166.811 220.142 166.804 221.256V231H161.315V222.409C161.322 221.653 161.133 221.06 160.749 220.629C160.371 220.198 159.83 219.983 159.128 219.983C158.684 219.983 158.293 220.082 157.954 220.281C157.623 220.473 157.365 220.752 157.179 221.116C157 221.474 156.907 221.905 156.901 222.409ZM171.473 231V215.727H176.962V231H171.473ZM174.218 214.136C173.475 214.136 172.839 213.891 172.309 213.401C171.778 212.91 171.513 212.32 171.513 211.631C171.513 210.941 171.778 210.351 172.309 209.861C172.839 209.37 173.475 209.125 174.218 209.125C174.967 209.125 175.603 209.37 176.127 209.861C176.657 210.351 176.922 210.941 176.922 211.631C176.922 212.32 176.657 212.91 176.127 213.401C175.603 213.891 174.967 214.136 174.218 214.136ZM189.037 231.278C187.406 231.278 186.001 230.967 184.821 230.344C183.648 229.714 182.743 228.812 182.106 227.639C181.477 226.459 181.162 225.047 181.162 223.403C181.162 221.826 181.48 220.447 182.116 219.267C182.753 218.087 183.651 217.169 184.811 216.513C185.971 215.857 187.34 215.528 188.917 215.528C190.071 215.528 191.115 215.707 192.05 216.065C192.984 216.423 193.783 216.944 194.446 217.626C195.109 218.303 195.619 219.125 195.977 220.092C196.335 221.06 196.514 222.151 196.514 223.364V224.636H182.872V221.614H191.463C191.456 221.176 191.344 220.792 191.125 220.46C190.913 220.122 190.624 219.86 190.26 219.675C189.902 219.482 189.494 219.386 189.037 219.386C188.593 219.386 188.185 219.482 187.814 219.675C187.443 219.86 187.144 220.119 186.919 220.45C186.7 220.782 186.584 221.17 186.571 221.614V224.875C186.571 225.366 186.674 225.803 186.879 226.188C187.085 226.572 187.38 226.874 187.764 227.092C188.149 227.311 188.613 227.42 189.156 227.42C189.534 227.42 189.879 227.367 190.19 227.261C190.508 227.155 190.78 227.003 191.006 226.804C191.231 226.598 191.397 226.353 191.503 226.068H196.514C196.342 227.129 195.934 228.05 195.291 228.832C194.648 229.608 193.796 230.211 192.736 230.642C191.682 231.066 190.449 231.278 189.037 231.278Z" fill="black"/>
<path d="M187.297 145.583H166.122V166.77H187.297V145.583Z" fill="#092EEC"/>
<path d="M78.854 133.289C77.4318 132.577 76.9973 131.391 77.0763 129.85C77.1553 127.478 77.0763 125.106 77.0763 122.735C77.0763 120.995 78.0639 120.007 79.8022 120.007C81.3429 120.007 82.9231 120.047 84.4639 120.007C85.0564 120.007 85.6885 119.731 86.2021 119.375C87.1108 118.782 87.9404 117.991 88.849 117.359C89.4811 116.924 89.6391 116.45 89.6391 115.738C89.6391 99.413 89.6391 83.0879 89.6391 66.7628C89.6391 66.328 89.6391 65.9327 89.7181 65.4979C89.8762 64.6678 90.3897 64.233 91.2194 64.2725C91.97 64.312 92.4441 64.7864 92.5231 65.5769C92.5231 65.8536 92.5231 66.1698 92.5231 66.4465C92.5231 83.0484 92.5231 99.6107 92.5231 116.212C92.5231 117.556 92.128 118.584 90.9823 119.375C89.7577 120.244 88.6515 121.272 87.4268 122.063C86.7157 122.497 85.8466 122.814 85.0169 122.893C83.3577 123.011 81.738 122.893 79.9997 122.893V130.324C82.2121 130.324 84.3848 130.324 86.5577 130.324C87.7823 130.324 88.5724 131.312 88.0984 132.3C87.9404 132.696 87.5058 132.933 87.1503 133.249H78.775L78.854 133.289Z" fill="#092EEC"/>
<path d="M96.7891 133.289C96.0779 132.815 95.5643 132.261 95.8804 131.352C96.1964 130.482 96.9471 130.324 97.7767 130.364C105.006 130.364 112.196 130.364 119.426 130.364C120.295 130.364 121.006 130.522 121.283 131.431C121.52 132.261 121.085 132.775 120.453 133.21C120.453 133.21 120.453 133.249 120.413 133.289H96.7891Z" fill="#092EEC"/>
<path d="M131.832 33.3618C110.064 33.3618 88.3359 33.3618 66.5682 33.3618C64.8694 33.3618 63.8423 34.3895 63.8423 36.0892C63.8423 42.0184 63.8423 47.9477 63.8423 53.8769C63.8423 55.6161 64.8694 56.6043 66.5682 56.6043C69.0176 56.6043 71.4669 56.4857 73.8768 56.6043C76.1681 56.7229 77.1558 55.1813 77.0767 53.4025C76.9582 51.1099 77.0767 48.8173 77.0767 46.4456H89.5606C89.5606 46.8013 89.6001 47.1176 89.6001 47.4338C89.6001 49.8845 89.6001 52.3353 89.6001 54.7465C89.6001 55.8928 90.1927 56.5648 91.1013 56.5253C91.9704 56.5253 92.5235 55.8928 92.5235 54.786C92.5235 51.861 92.563 48.9359 92.5235 45.9713C92.5235 44.4297 91.4568 43.4415 89.9161 43.4415C85.531 43.4415 81.1458 43.4415 76.7607 43.4415C75.141 43.4415 74.1533 44.4692 74.1138 46.0503C74.1138 47.7105 74.1138 49.3707 74.1138 51.0309V53.4816H66.8052V36.2473H131.555V53.4816H124.247C124.247 51.0704 124.247 48.6987 124.247 46.4061C124.247 44.3901 123.298 43.4415 121.284 43.4415C117.175 43.4415 113.027 43.4415 108.879 43.4415C106.746 43.4415 105.837 44.3506 105.837 46.5246C105.837 61.3477 105.837 76.2103 105.837 91.0334C105.837 91.4286 105.837 91.8634 105.876 92.2587L109.748 91.2705C109.037 91.0729 108.721 90.8357 108.721 90.0056C108.721 75.8545 108.721 61.6639 108.721 47.4733C108.721 47.1571 108.721 46.8013 108.76 46.4061H121.244C121.244 48.9754 121.244 51.4261 121.244 53.8769C121.244 55.4975 122.271 56.4857 123.852 56.4857C126.498 56.4857 129.106 56.4857 131.753 56.4857C133.412 56.4857 134.439 55.4975 134.439 53.8374C134.439 47.8686 134.439 41.9394 134.439 35.9706C134.439 34.2709 133.372 33.2827 131.674 33.2827L131.832 33.3618Z" fill="#092EEC"/>
<path d="M166.121 10.594H37.8457" stroke="#1E1E1C" stroke-width="5" stroke-miterlimit="10"/>
<path d="M176.669 145.582V17.1948" stroke="#1E1E1C" stroke-width="5" stroke-miterlimit="10"/>
<path d="M166.121 156.176H37.8457" stroke="#1E1E1C" stroke-width="5" stroke-miterlimit="10"/>
<path d="M27.2588 144.238V17.1948" stroke="#1E1E1C" stroke-width="5" stroke-miterlimit="10"/>
<path d="M37.8469 144.238H16.6719V165.425H37.8469V144.238Z" fill="#092EEC"/>
<path d="M114.568 98.3067C116.543 100.283 118.519 102.299 120.534 104.275C120.85 104.592 120.968 104.868 120.81 105.303C120.533 106.252 120.929 107.24 121.798 107.754C122.667 108.268 123.733 108.11 124.405 107.438C125.116 106.726 125.235 105.659 124.721 104.789C124.247 103.959 123.974 103.751 123.178 103.751C122.383 103.751 122.495 103.537 122.219 103.26C118.189 99.228 113.897 95.8445 109.867 91.8126C109.63 91.5754 108.853 91.0167 109.867 90.2208C110.104 89.8651 110.101 90.1021 110.457 90.2207C117.568 92.5924 124.089 95.3025 131.2 97.6742C131.556 97.7928 131.753 97.9904 131.872 98.3462C132.741 100.955 133.57 103.524 134.479 106.094C134.558 106.37 134.519 106.529 134.321 106.726C130.766 110.284 127.25 113.802 123.694 117.359C123.457 117.596 123.299 117.636 123.022 117.517C120.455 116.648 117.887 115.778 115.319 114.948C114.924 114.829 114.726 114.592 114.608 114.237C112.237 107.121 109.867 100.046 107.497 92.9308C107.497 92.8518 107.457 92.7727 107.418 92.6937C107.299 92.417 107.418 92.1007 107.655 92.0217C107.852 91.9426 108.168 92.0217 108.326 92.1403C109.037 92.8122 109.709 93.5238 110.42 94.1957C111.803 95.5792 113.146 96.9232 114.529 98.3067H114.568Z" stroke="black" stroke-miterlimit="10"/>
<path d="M133.625 117.425C131.886 119.164 130.109 120.943 128.37 122.682C127.975 123.078 127.778 123.078 127.422 122.682C126.869 122.129 126.316 121.576 125.802 121.022C125.486 120.706 125.486 120.469 125.802 120.152C129.318 116.595 132.874 113.077 136.39 109.559C136.706 109.243 136.943 109.243 137.259 109.559C137.812 110.112 138.365 110.666 138.918 111.219C139.274 111.575 139.274 111.773 138.918 112.128C137.18 113.907 135.402 115.646 133.664 117.425H133.625Z" stroke="black" stroke-miterlimit="10"/>
<path d="M141.866 114.097C142.775 115.006 143.576 115.836 144.445 116.706C144.682 116.943 144.682 117.22 144.445 117.457C144.366 117.536 144.287 117.655 144.168 117.734C140.771 121.133 137.373 124.533 133.976 127.932C133.383 128.525 133.265 128.525 132.712 127.932C131.922 127.141 131.131 126.351 130.341 125.56C134.173 121.726 137.966 117.931 141.798 114.097L141.866 114.097Z" stroke="black" stroke-miterlimit="10"/>
<path d="M37.8469 0H16.6719V21.1871H37.8469V0Z" fill="#092EEC"/>
<path d="M187.297 0H166.122V21.1871H187.297V0Z" fill="#092EEC"/>
</svg>
