<svg width="198" height="232" viewBox="0 0 198 232" fill="none" xmlns="http://www.w3.org/2000/svg">
<path d="M64.7955 200.679H70.9162V215.122C70.9162 216.84 70.5052 218.326 69.6832 219.581C68.8686 220.828 67.7311 221.794 66.2706 222.476C64.8101 223.151 63.1148 223.489 61.1847 223.489C59.2398 223.489 57.5372 223.151 56.0767 222.476C54.6162 221.794 53.4787 220.828 52.6641 219.581C51.8568 218.326 51.4531 216.84 51.4531 215.122V200.679H57.5739V214.594C57.5739 215.291 57.728 215.915 58.0362 216.465C58.3445 217.008 58.7701 217.434 59.3132 217.742C59.8636 218.051 60.4875 218.205 61.1847 218.205C61.8892 218.205 62.513 218.051 63.0561 217.742C63.5992 217.434 64.0249 217.008 64.3331 216.465C64.6413 215.915 64.7955 215.291 64.7955 214.594V200.679ZM82.0983 206.316L84.5642 211.556L87.1622 206.316H93.1949L88.6594 214.77L93.4151 223.225H87.4264L84.5642 217.852L81.7901 223.225H75.7134L80.5131 214.77L76.0216 206.316H82.0983ZM109.353 199.622L102.087 226.615H96.9353L104.201 199.622H109.353ZM127.275 200.679H133.396V215.122C133.396 216.84 132.985 218.326 132.163 219.581C131.348 220.828 130.211 221.794 128.75 222.476C127.29 223.151 125.594 223.489 123.664 223.489C121.719 223.489 120.017 223.151 118.556 222.476C117.096 221.794 115.958 220.828 115.144 219.581C114.336 218.326 113.933 216.84 113.933 215.122V200.679H120.053V214.594C120.053 215.291 120.208 215.915 120.516 216.465C120.824 217.008 121.25 217.434 121.793 217.742C122.343 218.051 122.967 218.205 123.664 218.205C124.369 218.205 124.993 218.051 125.536 217.742C126.079 217.434 126.504 217.008 126.813 216.465C127.121 215.915 127.275 215.291 127.275 214.594V200.679ZM139.338 223.225V206.316H145.414V223.225H139.338ZM142.376 204.554C141.554 204.554 140.85 204.283 140.263 203.74C139.675 203.196 139.382 202.543 139.382 201.78C139.382 201.017 139.675 200.364 140.263 199.82C140.85 199.277 141.554 199.006 142.376 199.006C143.205 199.006 143.91 199.277 144.49 199.82C145.077 200.364 145.37 201.017 145.37 201.78C145.37 202.543 145.077 203.196 144.49 203.74C143.91 204.283 143.205 204.554 142.376 204.554Z" fill="black"/>
<path d="M0 12.3723C0.27654 11.5027 0.513563 10.6726 0.790103 9.80299C2.72589 4.11093 8.05918 0.197641 14.1036 0C14.4196 0 14.7356 0 15.0517 0C70.9523 0 126.853 0 182.754 0C190.576 0 196.423 4.86196 197.687 12.3723C197.845 13.4 197.845 14.4278 197.845 15.4555C197.845 57.1972 197.845 98.9785 197.845 140.72C197.845 150.088 191.761 156.176 182.359 156.176C126.893 156.176 71.4659 156.176 15.9998 156.176C7.42707 156.176 2.68638 152.579 0.237025 144.317C0.197519 144.12 0.0790115 143.962 0 143.803C0 99.9667 0 56.1695 0 12.3328V12.3723ZM5.80732 34.6267H8.65174C61.471 34.6267 114.251 34.6267 167.07 34.6267C167.781 34.6267 168.492 34.6267 169.203 34.6267C170.981 34.7453 172.048 35.773 172.127 37.3541C172.206 39.0143 171.139 40.1606 169.282 40.3583C168.532 40.4373 167.742 40.3978 166.951 40.3978C114.132 40.3978 61.3524 40.3978 8.53323 40.3978C7.6641 40.3978 6.79497 40.3978 5.80732 40.3978V42.6114C5.80732 75.2616 5.80732 107.951 5.80732 140.602C5.80732 146.887 9.28385 150.326 15.6443 150.326C71.1499 150.326 126.655 150.326 182.201 150.326C188.64 150.326 192.077 146.887 192.077 140.444C192.077 107.833 192.077 75.2221 192.077 42.6114V40.3583C191.089 40.3583 190.339 40.3583 189.588 40.3583C187.336 40.3583 185.084 40.4373 182.833 40.2792C180.62 40.1606 179.396 38.2633 180.146 36.3659C180.699 34.9824 181.845 34.5476 183.228 34.5476C186.112 34.5476 188.996 34.5476 192.077 34.5476V32.4526C192.077 26.9582 192.077 21.5033 192.077 16.0089C192.077 8.97289 188.798 5.69206 181.845 5.69206C126.576 5.69206 71.3474 5.69206 16.0788 5.69206C15.5653 5.69206 15.0517 5.69206 14.5381 5.69206C9.5999 5.81064 5.88634 9.48676 5.84684 14.4278C5.80733 19.9222 5.84684 25.3771 5.84684 30.8715C5.84684 32.0178 5.84684 33.1641 5.84684 34.5081L5.80732 34.6267Z" fill="black"/>
<path d="M93.9835 86.1321C93.9835 94.1168 94.2206 102.101 93.9045 110.086C93.6675 116.253 90.8626 121.47 86.5564 125.818C72.8084 139.614 50.6457 138.586 38.5964 123.605C34.7644 118.861 32.9866 113.367 32.9471 107.319C32.9076 92.9705 32.9076 78.5822 32.9471 64.2335C32.9471 59.3715 36.0681 55.814 40.5322 55.2211C44.8383 54.6677 48.7889 57.2765 49.9741 61.427C50.1321 61.9013 50.2506 62.4152 50.2506 62.9291C50.2506 66.4076 50.3296 69.886 50.2506 73.3645C50.2506 75.1433 49.1445 76.2105 47.5643 76.3291C45.905 76.4082 44.6013 75.3409 44.5223 73.5226C44.4038 70.8742 44.4828 68.2259 44.4828 65.617C44.4828 64.9055 44.4828 64.194 44.4433 63.4825C44.2853 62.0199 43.4161 61.1503 41.9544 60.9922C40.4137 60.8341 39.3075 61.5456 38.9125 63.0477C38.715 63.7592 38.7149 64.5893 38.7149 65.3403C38.7149 78.8194 39.11 92.2985 38.5964 105.738C38.0434 121.233 52.8975 130.483 64.1962 129.771C69.6875 129.415 74.6257 127.676 79.0898 124.514C85.1342 120.245 88.3342 114.434 88.3342 106.963C88.3342 92.8519 88.3342 78.7403 88.3342 64.6288C88.3342 64.1149 88.3342 63.6011 88.1762 63.0872C87.7811 61.5851 86.7145 60.7946 85.1737 60.9131C83.633 61.0317 82.7244 61.9409 82.5663 63.522C82.5268 64.1544 82.5663 64.8264 82.5663 65.4589C82.5663 78.5822 82.5663 91.7451 82.5663 104.868C82.5663 116.49 73.638 124.672 61.9838 123.881C56.374 123.486 51.9494 120.917 48.1963 116.964C45.6285 114.276 44.5618 110.916 44.5618 107.24C44.5223 100.718 44.5618 94.2354 44.5618 87.7132C44.5618 85.4206 45.6285 84.1162 47.4062 84.0766C49.3025 84.0371 50.3297 85.302 50.3297 87.7528C50.3297 93.682 50.3297 99.6112 50.3297 105.54C50.3297 112.774 56.137 118.308 63.4456 118.071C66.3295 117.992 68.9764 117.122 71.4652 115.62C75.0603 113.407 76.838 110.363 76.838 106.054C76.759 92.2194 76.838 78.3451 76.7985 64.5102C76.7985 61.5851 77.5886 59.0553 79.8405 57.1184C84.7787 52.8494 92.6403 55.4978 93.944 61.9409C94.1416 62.9291 94.1811 63.9963 94.2206 65.0241C94.2206 72.0601 94.2206 79.0566 94.2206 86.0926C94.1416 86.0926 94.0626 86.0926 93.9835 86.0926V86.1321Z" fill="#092EEC" stroke="white" stroke-width="3" stroke-miterlimit="10"/>
<path d="M132.422 108.189C128.274 114.078 124.245 119.81 120.215 125.541C118.753 127.597 117.371 129.692 115.869 131.708C112.906 135.74 107.652 136.728 103.741 134.001C99.7114 131.194 98.7633 125.858 101.647 121.707C107.85 112.774 114.171 103.92 120.412 95.0257C120.847 94.3933 121.282 93.7608 121.756 93.0493C117.094 86.4481 112.472 79.8469 107.85 73.2852C106.862 71.8622 105.835 70.4392 104.847 69.0162C101.963 64.7472 102.793 59.4899 106.783 56.6834C110.813 53.8769 116.027 54.7861 119.03 58.9761C123.059 64.6286 127.049 70.3602 131.039 76.0127C131.435 76.5661 131.869 77.1195 132.383 77.831C132.857 77.1985 133.252 76.7242 133.607 76.2103C137.558 70.5973 141.548 64.9448 145.499 59.3318C148.62 54.9047 153.913 53.7979 157.982 56.6439C162.091 59.4899 162.881 64.8658 159.8 69.2929C154.269 77.1985 148.699 85.1042 143.049 93.0889C144.669 95.3815 146.249 97.5951 147.829 99.8877C149.133 101.785 149.015 103.406 147.513 104.473C146.052 105.501 144.392 105.066 143.089 103.248C141.469 100.994 139.889 98.7414 138.309 96.4488C136.61 93.9585 136.57 92.1797 138.309 89.729C143.681 82.1 149.054 74.4711 154.427 66.8422C154.822 66.2492 155.296 65.6958 155.573 65.0634C156.165 63.6799 155.928 62.3359 154.624 61.4663C153.36 60.5967 152.057 60.7548 150.95 61.8221C150.555 62.2174 150.239 62.7312 149.923 63.2056C145.617 69.2929 141.351 75.4198 137.005 81.5071C134.16 85.539 130.684 85.539 127.84 81.5466C123.533 75.4593 119.267 69.3324 114.961 63.2056C114.605 62.6917 114.25 62.0988 113.775 61.7035C112.63 60.6758 111.326 60.5967 110.062 61.5059C108.916 62.3755 108.6 63.6008 109.193 64.9448C109.469 65.5377 109.864 66.0516 110.22 66.5655C115.553 74.1549 120.887 81.7443 126.22 89.3337C128.314 92.2983 128.314 93.8399 126.22 96.844C119.899 105.856 113.538 114.829 107.218 123.842C106.862 124.356 106.427 124.87 106.151 125.462C105.479 126.846 105.637 128.15 106.901 129.099C108.205 130.087 109.588 129.929 110.734 128.783C111.168 128.348 111.524 127.795 111.919 127.241C117.252 119.652 122.585 112.062 127.919 104.512C130.644 100.678 134.2 100.678 136.926 104.552C142.338 112.22 147.75 119.928 153.163 127.597C153.676 128.308 154.348 129.297 155.059 129.376C156.126 129.494 157.508 129.218 158.299 128.585C159.405 127.716 159.247 126.253 158.417 125.067C156.323 122.063 154.19 119.059 152.096 116.055C151.78 115.58 151.385 115.106 151.148 114.592C150.358 113.13 150.674 111.786 151.978 110.837C153.321 109.849 154.822 110.007 155.77 111.311C158.575 115.146 161.459 118.98 163.869 123.051C166.121 126.846 164.461 131.826 160.708 134.198C156.955 136.57 151.859 135.661 149.133 131.985C146.091 127.834 143.207 123.565 140.244 119.375C137.676 115.699 135.069 112.023 132.383 108.189H132.422Z" fill="#092EEC" stroke="white" stroke-width="3" stroke-miterlimit="10"/>
<path d="M136.255 11.4238C149.648 11.4238 163.04 11.4238 176.433 11.4238C180.146 11.4238 182.912 13.0445 184.531 16.3648C186.033 19.448 185.677 22.4917 183.662 25.2982C182.24 27.2746 180.265 28.4209 177.815 28.6976C176.788 28.8162 175.761 28.8557 174.734 28.8557C149.055 28.8557 123.337 28.8557 97.6582 28.8557C96.236 28.8557 94.8138 28.8557 93.4311 28.5C89.441 27.5118 86.6362 23.4799 87.0312 19.4876C87.4658 15.1395 90.6657 11.7796 94.8928 11.5424C98.6854 11.3448 102.478 11.4634 106.27 11.4634C116.265 11.4634 126.221 11.4634 136.216 11.4634L136.255 11.4238ZM136.255 17.2345C125.944 17.2345 115.673 17.2345 105.362 17.2345C102.201 17.2345 99.041 17.2345 95.8805 17.2345C94.0632 17.2345 92.8386 18.4598 92.8386 20.041C92.8386 21.6221 93.9842 22.7684 95.8015 22.966C96.2361 23.0056 96.7101 22.966 97.1447 22.966C123.139 22.966 149.174 22.966 175.169 22.966C175.801 22.966 176.472 22.966 177.104 22.8475C178.724 22.5708 179.633 21.5035 179.554 19.8829C179.475 18.3808 178.566 17.3926 176.986 17.1949C176.354 17.1159 175.682 17.1554 175.05 17.1554C162.092 17.1554 149.174 17.1554 136.216 17.1554L136.255 17.2345Z" fill="black"/>
<path d="M54.1627 20.2384C54.1232 24.9818 50.2911 28.7765 45.5109 28.7765C40.7307 28.7765 36.7801 24.8237 36.8196 20.0408C36.8196 15.2579 40.8097 11.3841 45.6294 11.4236C50.4886 11.5027 54.2417 15.3369 54.1627 20.2384ZM45.4319 22.9263C47.0121 22.9659 48.2763 21.8195 48.3553 20.2779C48.4738 18.6178 47.2886 17.3133 45.6294 17.2343C44.0097 17.1947 42.6665 18.4992 42.6665 20.0803C42.6665 21.5824 43.9307 22.8868 45.4319 22.9263Z" fill="black" stroke="white" stroke-width="0.5" stroke-miterlimit="10"/>
<path d="M78.4978 20.1596C78.4978 25.0216 74.5867 28.8558 69.767 28.7768C65.0264 28.7372 61.1943 24.8635 61.1548 20.1596C61.1548 15.3767 65.0659 11.4239 69.8461 11.4634C74.7053 11.4634 78.4978 15.2977 78.4978 20.1596ZM72.6905 20.0806C72.6905 18.4994 71.5053 17.3136 69.9251 17.2741C68.3053 17.2741 66.9621 18.5785 67.0017 20.1596C67.0017 21.6617 68.3053 22.9266 69.8066 22.9661C71.4658 22.9661 72.73 21.7408 72.6905 20.0806Z" fill="black" stroke="white" stroke-width="0.5" stroke-miterlimit="10"/>
<path d="M20.503 11.4238C25.3623 11.4633 29.1153 15.3371 29.0758 20.199C29.0363 25.0215 25.0857 28.8557 20.266 28.7371C15.5253 28.6185 11.7328 24.7843 11.7723 20.0409C11.7723 15.2185 15.7229 11.3447 20.5426 11.4238H20.503ZM23.229 20.0805C23.229 18.4598 22.0833 17.274 20.4636 17.2344C18.8833 17.2344 17.6191 18.3808 17.5401 19.9619C17.5006 21.6221 18.7648 22.9265 20.4241 22.9265C22.0438 22.9265 23.1894 21.7011 23.1894 20.0805H23.229Z" fill="black" stroke="white" stroke-width="0.5" stroke-miterlimit="10"/>
<path d="M23.7432 20.0801L23.7827 20.0405" stroke="#EC625D" stroke-miterlimit="10"/>
</svg>
